<?xml version="1.0" encoding="UTF-8"?>
<!DOCTYPE svg PUBLIC "-//W3C//DTD SVG 1.1//EN" "http://www.w3.org/Graphics/SVG/1.1/DTD/svg11.dtd">
<!-- Creator: CorelDRAW 2021 (64 Bit) -->
<svg xmlns="http://www.w3.org/2000/svg" xml:space="preserve" width="17.5258mm" height="2.7938mm" version="1.1" style="shape-rendering:geometricPrecision; text-rendering:geometricPrecision; image-rendering:optimizeQuality; fill-rule:evenodd; clip-rule:evenodd"
viewBox="0 0 1752.58 279.38"
 xmlns:xlink="http://www.w3.org/1999/xlink"
 xmlns:xodm="http://www.corel.com/coreldraw/odm/2003">
 <defs>
  <style type="text/css">
   <![CDATA[
    .fil3 {fill:#E14A51}
    .fil0 {fill:#00AFEF}
    .fil1 {fill:#27D69C}
    .fil2 {fill:#D99DD6}
    .fil4 {fill:#F2C94E}
    .fil5 {fill:#00AFEF;fill-rule:nonzero}
   ]]>
  </style>
 </defs>
 <g id="Camada_x0020_1">
  <metadata id="CorelCorpID_0Corel-Layer"/>
  <g id="_2419455900080">
   <path class="fil0" d="M111.79 254.49c-5.27,11.62 -21.77,4.08 -17.22,-7.12 1.56,-3.83 6.49,-6.99 11.82,-5.11 4.14,1.46 7.83,6.86 5.4,12.23zm110.49 -45.09c12.22,-2.94 15.85,15.32 4.48,18.02 -12.46,2.95 -16.17,-15.2 -4.48,-18.02zm-124.06 8.44c2.42,-0.2 6.96,-1.8 9.67,-2.57l27.65 -9.65 22.94 7.94c1.96,0.57 2.87,1 4.83,1.58 2.65,0.78 7.76,2.5 10.12,2.7 -0.19,8.51 -11.98,36.47 -19.42,45.21 -0.9,1.06 -1.83,2.27 -2.65,3.16 -3.36,3.7 -10.42,8.07 -15.82,8.07 -5,0 -10.82,-3.9 -14.23,-7.33 -1.57,-1.58 -2.01,-2.5 -3.85,-3.73 5.98,-8.91 6.61,-18.05 -1.22,-25.55 -3.65,-3.5 -6.8,-5.29 -13.93,-5.29 -1.15,-2.38 -4,-11.29 -4.09,-14.54zm143.42 -6.98c-1.64,-3.1 -2.8,-5.01 -5.64,-7.17 -11.1,-8.46 -26.75,-2.92 -29.92,10.66 -6.63,-0.55 -14.99,-2.1 -20.99,-3.49 3.53,-7.34 3.39,-31.77 6.48,-34.26l6.11 -3.8c3.86,-2.57 25.76,-17.92 28.8,-22.46 4.27,2.85 13.72,14.11 16.91,18.62 6.05,8.56 16.05,25.58 6.84,36.5 -1.79,2.11 -5.25,5.12 -8.59,5.4zm-65.88 -2.33c-10.78,-2.51 -19.81,-6.52 -26.82,-8.15 1.38,-1.87 5.05,-3.16 7.5,-4.15 5.47,-2.21 21.38,-11.67 23.4,-12.14 0,3.24 -3.21,22.64 -4.08,24.44zm-83.95 -24.44c2.03,0.47 5.82,3.01 7.61,4.05l7.54 4.1c2.92,1.52 14.48,6.41 15.75,8.14 -2.15,0.18 -10.35,3.36 -13.18,4.3 -4.54,1.51 -9.02,2.77 -13.64,3.85 -0.96,-2 -4.08,-20.93 -4.08,-24.44zm-79.69 -11.75c12.09,-3.5 16.16,14.5 5.21,17.7 -11.92,3.49 -17.41,-14.17 -5.21,-17.7zm16.73 -3.96c2.91,-4.34 12.25,-15.32 16.32,-18.04 3.1,4.62 24.48,19.58 28.45,22.23 1.11,0.74 6.95,4.32 7.3,4.93l5.06 33.36c-4.72,2.25 -27.08,4.07 -33.81,4.07 -7.22,0 -15.83,-1.24 -21.17,-3.31 -5.3,-2.05 -12.12,-6.08 -12.65,-12.4 8.03,-0.18 18.51,-11.05 13.75,-24.78l-3.25 -6.06zm60.63 -16.87c0,-6.2 -0.54,-33.13 1.91,-35.92 1.59,-1.8 25.89,-14.5 29.49,-15.95 2.17,-0.88 13.62,-7.05 15.84,-6.34 0.43,0.14 2.8,1.23 3.65,1.6 15.46,6.71 23.34,11.12 37.78,19.31 1.97,1.12 2.18,0.66 2.86,2.96 1.65,5.56 1.54,47.11 0.11,53.07 -0.56,2.36 -0.23,1.84 -2.21,3.02 -1.46,0.88 -2.4,1.39 -3.73,2.1 -14.43,7.79 -18.92,10.47 -34.41,17.45 -6.41,2.89 -3.7,2.58 -11.49,-0.73 -8.69,-3.71 -15.38,-7.51 -23.09,-11.29 -2.64,-1.29 -4.6,-2.43 -7.14,-3.93 -10.94,-6.46 -8.12,-3 -9.02,-14.27 -0.29,-3.57 -0.55,-6.65 -0.55,-11.08zm102.02 -28.52c3.2,0.86 25.83,18.02 27.99,20.95 -0.93,1.26 -5.01,4.43 -6.55,5.69 -3.26,2.67 -18.45,14.46 -21.44,15.26 0,-7.77 0.59,-13.5 0.59,-20.95 0,-7.45 -0.59,-13.17 -0.59,-20.95zm-111.93 20.37l0.58 21.53c-3.43,-0.92 -26.33,-18.49 -27.98,-20.95 1.3,-1.94 10.94,-9.21 13.41,-11.05 2.68,-2.01 11.72,-9.14 14.57,-9.9 0,7.48 -0.58,12.83 -0.58,20.37zm69.37 -55.86c2.16,-0.18 10.36,-3.36 13.19,-4.3 4.54,-1.5 9.01,-2.77 13.63,-3.84 0.94,1.94 4.01,20.98 4.08,24.43 -2.55,-0.59 -18.27,-10.03 -22.98,-11.97 -2.6,-1.07 -6.55,-2.45 -7.92,-4.32zm-57.13 16.29c0,-3.5 3.12,-22.44 4.08,-24.43 10.71,2.49 19.96,6.55 26.82,8.14 -0.97,1.33 -15.65,8.18 -19.05,10.08l-11.85 6.21zm-47.22 33.75c-0.33,-0.49 -11.23,-11.57 -16.08,-18.28 -20.21,-27.95 -12.26,-46.3 24.24,-46.3 6.5,0 28.68,1.89 33.23,4.07 0,3.39 -1.16,7.54 -1.67,10.55 -0.63,3.71 -1.29,7.53 -1.72,11.08 -0.28,2.31 -0.85,9.88 -1.48,11.33 -0.72,1.67 -5.77,4.18 -7.49,5.32 -5.71,3.81 -20.18,14.29 -25.67,19.18 -1.4,1.24 -1.82,2.02 -3.36,3.05zm140.5 -60.51c10.62,-2.47 21.86,-4.07 34.4,-4.07 15.37,0 34.39,4.44 34.39,19.2 0,10.92 -4.96,19.11 -10.73,27.1 -3.35,4.62 -12.43,15.45 -16.67,18.28 -0.8,-1.2 -1.63,-2.05 -2.82,-3 -11.9,-9.39 -17.6,-14.36 -31.37,-22.8l-1.76 -1.73c-0.65,-1.35 -3.21,-28.35 -5.44,-32.98zm-84.37 -44.36c12.05,-3.56 16.19,14.52 5.23,17.75 -11.91,3.51 -17.4,-14.15 -5.23,-17.75zm14.99 -5.1c3,-4.47 7.67,-9.42 12.62,-11.85 5.85,-2.88 10.06,-2.66 15.77,0.39l6.73 4.92c3.74,3.74 7.25,9.65 9.8,14.07 3.96,6.84 12.64,27.9 12.8,34.95 -2.94,0.24 -10.68,2.93 -14.06,4l-23.25 8.22c-1.59,0 -30.57,-11.62 -37.9,-12.22 0.07,-3.16 1.64,-6.9 2.34,-9.9 8.68,0 10.27,-0.77 15.18,-4.63 5.47,-4.3 8.43,-14.12 4.46,-21.95 -1.51,-2.99 -2.98,-3.76 -4.49,-6zm-8.16 -4.65c-9.13,0 -11.25,0.11 -16.67,4.3 -8.06,6.23 -9.78,21.7 0.93,28.86l-2.53 9.15c-0.63,2.24 0.04,1.85 -1.45,2.15 -0.32,0.06 -12.01,-2.28 -13.61,-2.47 -10.19,-1.22 -19.55,-2.04 -30.19,-1.24 -41.07,3.11 -43.07,33.27 -25.1,58.75 6.23,8.83 17.3,20.08 18.66,22.1 -2.88,1.93 -6.45,5.84 -8.88,8.59l-8.02 10.03c-4.71,-0.1 -12.62,-2.89 -19.99,5.08 -9.78,10.58 -3.89,27.71 7.74,30.42 0,6.83 5.19,13.48 10.14,17.22 5.49,4.15 12.56,6.32 20.34,7.63 11.91,2 41.18,0.61 49.39,-3.32 1.1,2.27 3.11,11.88 4.67,15.12 -10.26,6.86 -11.54,20.16 -3.66,28.67 4.95,5.35 14.75,7.29 20.56,4.5 8.12,12.09 23.08,19.46 37.53,12.43 4.09,-1.99 5.27,-3.52 8.2,-5.78 2.21,-1.7 1.56,-1.23 3.16,-3.24 5.33,-6.69 3.75,-3.64 8.86,-12.1 3.29,-5.45 6.36,-12.02 8.89,-18.48 1.37,-3.51 2.33,-6.76 3.55,-10.43 1.12,-3.37 1.95,-7.95 3.27,-10.69 3.21,1.53 17.41,3.49 22.74,3.49 1.81,3.42 2.97,6.28 5.82,8.73 13,11.18 30.63,0.65 30.91,-11.64 8.78,-0.73 20.99,-12.49 20.99,-25.61 0,-12.59 -8.39,-26.64 -15.08,-34.99 -5.42,-6.76 -8.22,-8.92 -11.87,-13.17 -1.68,-1.96 -0.43,-1.83 -2.79,-2.46 2.29,-4.3 6.42,-6.64 9.42,-10.38 13.36,-16.67 31.3,-40.5 11.72,-60.18 -7.3,-7.34 -20.73,-10.03 -31.65,-10.3 -2.99,-0.07 -3.36,-0.8 -6.34,-0.59 -2.38,0.17 -3.22,0.6 -6.47,0.58 -8.37,-0.07 -18.02,2.11 -25.17,3.51 -3.09,0.6 -2.56,0.4 -3.3,-2.42 -0.58,-2.22 -0.85,-3.22 -1.51,-5.5 -3.82,-13.36 -9.81,-27.5 -17.98,-38.49 -1.23,-1.66 -1.89,-2.32 -3.16,-3.83 -1.49,-1.78 -1.32,-2.11 -3.34,-3.66 -3.01,-2.3 -4.57,-3.97 -8.11,-5.87 -21.34,-11.45 -39.53,11.46 -40.62,15.53z"/>
   <path class="fil0" d="M107.55 143.94c0,11.56 6.8,20.56 15.74,25.03 7.91,3.96 17.09,4.02 25.08,0 3.92,-1.97 4.71,-2.67 7.73,-5.67 13.32,-13.26 9.04,-36.08 -7.33,-44.2 -20,-9.93 -41.22,4.94 -41.22,24.84z"/>
   <path class="fil0" d="M132.98 125.54c-24.55,3.96 -18.53,40.83 5.86,36.76 9.06,-1.52 17.06,-10.04 15.39,-21.25 -1.38,-9.21 -10.34,-17.26 -21.25,-15.51z"/>
   <path class="fil1" d="M222.28 209.4c-11.69,2.82 -7.98,20.97 4.48,18.02 11.37,-2.7 7.74,-20.96 -4.48,-18.02z"/>
   <path class="fil2" d="M111.79 254.49c2.43,-5.37 -1.26,-10.77 -5.4,-12.23 -5.33,-1.88 -10.26,1.28 -11.82,5.11 -4.55,11.2 11.95,18.74 17.22,7.12z"/>
   <path class="fil3" d="M100.72 32.67c-12.17,3.6 -6.68,21.26 5.23,17.75 10.96,-3.23 6.82,-21.31 -5.23,-17.75z"/>
   <path class="fil4" d="M12.12 172.34c-12.2,3.53 -6.71,21.19 5.21,17.7 10.95,-3.2 6.88,-21.2 -5.21,-17.7z"/>
   <path class="fil5" d="M340.98 162.33l0 45.69 -35.06 0 0 -128.65 59.51 0c19.64,0 29.45,8.28 29.45,24.85l0 33.26c0,12.69 -5.75,20.51 -17.22,23.45l23.63 47.09 -37.66 0 -20.44 -45.69 -2.21 0zm13.83 -57.91l-13.83 0 0 34.06 13.83 0c3.34,0 5.01,-1.46 5.01,-4.4l0 -25.25c0,-2.94 -1.67,-4.41 -5.01,-4.41zm81.55 3.61l24.45 0c19.62,0 29.44,8.28 29.44,24.84l0 34.07 -51.09 0 0 13.23c0,2.93 1.67,4.4 5.01,4.4l8.82 0c3.34,0 5.01,-1.6 5.01,-4.8l0 -5.62 32.25 0 0 9.02c0,16.57 -9.82,24.85 -29.44,24.85l-24.45 0c-19.64,0 -29.46,-8.28 -29.46,-24.85l0 -50.3c0,-16.56 9.82,-24.84 29.46,-24.84zm2.8 40.47l18.84 0 0 -12.62c0,-2.94 -1.67,-4.41 -5.01,-4.41l-8.82 0c-3.34,0 -5.01,1.47 -5.01,4.41l0 12.62zm110.61 -40.47l33.45 0 0 99.99 -34.06 0 0 -10.82c-2.53,7.21 -8.41,10.82 -17.63,10.82l-3.61 0c-17.76,0 -26.65,-8.28 -26.65,-24.85l0 -50.3c0,-16.56 8.89,-24.84 26.65,-24.84l3.61 0c10.29,0 16.37,4.27 18.24,12.82l0 -12.82zm-9.42 74.94l3.4 0c3.61,0 5.41,-2 5.41,-6.01l0 -37.87c0,-4.01 -1.8,-6.02 -5.41,-6.02l-3.4 0c-3.34,0 -5.01,1.47 -5.01,4.41l0 41.08c0,2.94 1.67,4.41 5.01,4.41zm137.25 -36.27l-32.87 0 0 -9.22c0,-2.94 -1.67,-4.41 -5,-4.41l-3.4 0c-3.34,0 -5.01,1.47 -5.01,4.41l0 41.08c0,2.94 1.67,4.41 5.01,4.41l3.4 0c3.33,0 5,-1.47 5,-4.41l0 -9.22 32.87 0 0 13.83c0,16.57 -9.82,24.85 -29.46,24.85l-21.43 0c-19.64,0 -29.46,-8.28 -29.46,-24.85l0 -50.3c0,-16.56 9.82,-24.84 29.46,-24.84l21.43 0c19.64,0 29.46,8.28 29.46,24.84l0 13.83zm62.71 -13.63l-12.62 0 0 45.49c0,2.94 1.67,4.41 5.01,4.41l7.41 0 0 25.05 -17.02 0c-19.64,0 -29.46,-8.28 -29.46,-24.85l0 -50.1 -11.02 0 0 -25.04 11.02 0 0 -19.64 34.06 0 0 19.64 12.62 0 0 25.04zm136.26 -5.61l-35.06 0 0 -20.64c0,-2.94 -1.67,-4.41 -5.01,-4.41l-7.02 0c-3.34,0 -5.01,1.47 -5.01,4.41l0 73.75c0,2.94 1.67,4.41 5.01,4.41l7.02 0c3.34,0 5.01,-1.47 5.01,-4.41l0 -19.84 35.06 0 0 22.44c0,16.57 -9.82,24.85 -29.45,24.85l-28.26 0c-19.63,0 -29.45,-8.28 -29.45,-24.85l0 -78.95c0,-16.57 9.82,-24.85 29.45,-24.85l28.26 0c19.63,0 29.45,8.28 29.45,24.85l0 23.24zm40.47 -19.43l25.45 0c10.15,0 17.43,2.13 21.84,6.41 4.41,4.27 6.61,10.42 6.61,18.43l0 50.3c0,8.02 -2.2,14.16 -6.61,18.44 -4.41,4.27 -11.69,6.41 -21.84,6.41l-25.45 0c-10.15,0 -17.43,-2.14 -21.83,-6.41 -4.41,-4.28 -6.62,-10.42 -6.62,-18.44l0 -50.3c0,-8.01 2.21,-14.16 6.62,-18.43 4.4,-4.28 11.68,-6.41 21.83,-6.41zm20.44 71.94l0 -43.89c0,-2.94 -1.67,-4.41 -5.01,-4.41l-5.41 0c-3.34,0 -5.01,1.47 -5.01,4.41l0 43.89c0,2.93 1.67,4.4 5.01,4.4l5.41 0c3.34,0 5.01,-1.47 5.01,-4.4zm148.07 -71.94l3.61 0c17.76,0 26.65,8.28 26.65,24.84l0 75.15 -34.07 0 0 -70.54c0,-2.94 -1.67,-4.41 -5.01,-4.41l-3.4 0c-3.61,0 -5.41,2.01 -5.41,6.02l0 68.93 -34.06 0 0 -70.54c0,-2.94 -1.67,-4.41 -5.01,-4.41l-3.41 0c-3.6,0 -5.41,2.01 -5.41,6.02l0 68.93 -34.06 0 0 -99.99 33.46 0 0 12.82c1.87,-8.55 7.95,-12.82 18.24,-12.82l3.6 0c12.43,0 20.58,4.2 24.45,12.62 1.07,-3.87 3.4,-6.95 7,-9.22 3.61,-2.27 7.89,-3.4 12.83,-3.4zm96.98 0l3.6 0c17.77,0 26.66,8.28 26.66,24.84l0 50.3c0,16.57 -8.89,24.85 -26.66,24.85l-3.6 0c-9.22,0 -15.1,-3.61 -17.64,-10.82l0 36.67 -34.05 0 0 -125.84 33.45 0 0 12.82c1.87,-8.55 7.95,-12.82 18.24,-12.82zm-3.81 70.53l0 -41.08c0,-2.94 -1.67,-4.41 -5.01,-4.41l-3.41 0c-3.6,0 -5.41,2.01 -5.41,6.02l0 37.87c0,4.01 1.81,6.01 5.41,6.01l3.41 0c3.34,0 5.01,-1.47 5.01,-4.41zm75.54 -70.53l25.45 0c10.15,0 17.43,2.13 21.84,6.41 4.41,4.27 6.61,10.42 6.61,18.43l0 50.3c0,8.02 -2.2,14.16 -6.61,18.44 -4.41,4.27 -11.69,6.41 -21.84,6.41l-25.45 0c-10.15,0 -17.42,-2.14 -21.83,-6.41 -4.41,-4.28 -6.62,-10.42 -6.62,-18.44l0 -50.3c0,-8.01 2.21,-14.16 6.62,-18.43 4.41,-4.28 11.68,-6.41 21.83,-6.41zm20.44 71.94l0 -43.89c0,-2.94 -1.67,-4.41 -5.01,-4.41l-5.41 0c-3.34,0 -5.01,1.47 -5.01,4.41l0 43.89c0,2.93 1.67,4.4 5.01,4.4l5.41 0c3.34,0 5.01,-1.47 5.01,-4.4zm100.19 -71.94l3.6 0c17.77,0 26.66,8.28 26.66,24.84l0 75.15 -34.07 0 0 -70.54c0,-2.94 -1.67,-4.41 -5.01,-4.41l-3.41 0c-3.6,0 -5.41,2.01 -5.41,6.02l0 68.93 -34.06 0 0 -99.99 33.46 0 0 12.82c1.87,-8.55 7.95,-12.82 18.24,-12.82zm72.73 0l24.45 0c19.63,0 29.44,8.28 29.44,24.84l0 34.07 -51.09 0 0 13.23c0,2.93 1.67,4.4 5.01,4.4l8.82 0c3.34,0 5.01,-1.6 5.01,-4.8l0 -5.62 32.25 0 0 9.02c0,16.57 -9.81,24.85 -29.44,24.85l-24.45 0c-19.64,0 -29.46,-8.28 -29.46,-24.85l0 -50.3c0,-16.56 9.82,-24.84 29.46,-24.84zm2.8 40.47l18.84 0 0 -12.62c0,-2.94 -1.67,-4.41 -5.01,-4.41l-8.82 0c-3.34,0 -5.01,1.47 -5.01,4.41l0 12.62zm115.82 -40.47l3.6 0c17.76,0 26.65,8.28 26.65,24.84l0 75.15 -34.06 0 0 -70.54c0,-2.94 -1.67,-4.41 -5.01,-4.41l-3.41 0c-3.6,0 -5.41,2.01 -5.41,6.02l0 68.93 -34.06 0 0 -99.99 33.46 0 0 12.82c1.87,-8.55 7.95,-12.82 18.24,-12.82zm95.97 25.04l-12.62 0 0 45.49c0,2.94 1.67,4.41 5.01,4.41l7.41 0 0 25.05 -17.03 0c-19.64,0 -29.46,-8.28 -29.46,-24.85l0 -50.1 -11.02 0 0 -25.04 11.02 0 0 -19.64 34.07 0 0 19.64 12.62 0 0 25.04zm53.1 48.5l0 -8.02c0,-2.94 -1.67,-4.41 -5.01,-4.41l-12.22 0c-19.24,0 -28.86,-8.21 -28.86,-24.64l0 -11.63c0,-16.56 9.82,-24.84 29.46,-24.84l18.63 0c19.64,0 29.46,8.28 29.46,24.84l0 8.42 -32.46 0 0 -6.81c0,-2.94 -1.67,-4.41 -5.01,-4.41l-2.01 0c-3.34,0 -5.01,1.47 -5.01,4.41l0 8.81c0,2.94 1.67,4.41 5.01,4.41l12.23 0c10.28,0 17.67,2.11 22.14,6.31 4.48,4.21 6.7,10.26 6.7,18.14l0 11.02c0,16.57 -9.81,24.85 -29.44,24.85l-19.64 0c-19.64,0 -29.46,-8.28 -29.46,-24.85l0 -8.21 33.07 0 0 6.61c0,2.94 1.67,4.41 5.01,4.41l2.4 0c3.34,0 5.01,-1.47 5.01,-4.41z"/>
  </g>
 </g>
</svg>
